<svg id="sv_f1_2" width="100%" xmlns="http://www.w3.org/2000/svg" style="max-width: 1240px; background-color: white;" viewBox="0 0 1240 440" role="img" aria-label="图 1-2 分片正常读写/调度路径">
  <defs>
    <marker id="arrow" markerWidth="10" markerHeight="10" refX="8" refY="5" orient="auto" markerUnits="strokeWidth">
      <path d="M 0 0 L 10 5 L 0 10 z" fill="#333333"/>
    </marker>
    <style>
      #sv_f1_2 { font-family: -apple-system, BlinkMacSystemFont, "Segoe UI", Arial, "Noto Sans CJK SC", "Microsoft YaHei", sans-serif; }
      #sv_f1_2 .panel { fill: #ffffff; stroke: #aab0bb; stroke-width: 1.2; }
      #sv_f1_2 .node { fill: #ffffff; stroke: #9370db; stroke-width: 1.2; rx: 4; }
      #sv_f1_2 .title { fill: #111827; font-size: 15px; font-weight: 700; text-anchor: middle; }
      #sv_f1_2 .label { fill: #1f2937; font-size: 13px; text-anchor: middle; dominant-baseline: middle; }
      #sv_f1_2 .edge { fill: none; stroke: #333333; stroke-width: 1.2; marker-end: url(#arrow); }
      #sv_f1_2 .dashed { stroke-dasharray: 5 4; }
      #sv_f1_2 .edgeText { fill: #374151; font-size: 10px; text-anchor: middle; }
    </style>
  </defs>

  <rect x="0" y="0" width="1240" height="440" fill="#ffffff"/>

  <rect class="panel" x="20" y="26" width="585" height="388"/>
  <text class="title" x="312.5" y="54">TiDB：KV Range 自动分片路径</text>

  <rect class="node" x="52" y="112" width="128" height="54"/>
  <text class="label" x="116" y="133"><tspan x="116" dy="0">SQL Table /</tspan><tspan x="116" dy="17">Index 行</tspan></text>

  <rect class="node" x="224" y="112" width="136" height="54"/>
  <text class="label" x="292" y="133"><tspan x="292" dy="0">全局有序</tspan><tspan x="292" dy="17">KV Keyspace</tspan></text>

  <rect class="node" x="404" y="112" width="138" height="54"/>
  <text class="label" x="473" y="133"><tspan x="473" dy="0">Region</tspan><tspan x="473" dy="17">[start,end)</tspan></text>

  <rect class="node" x="68" y="266" width="156" height="70"/>
  <text class="label" x="146" y="285"><tspan x="146" dy="0">PD</tspan><tspan x="146" dy="17">心跳上报</tspan><tspan x="146" dy="17">split / merge / balance</tspan></text>

  <rect class="node" x="276" y="274" width="128" height="54"/>
  <text class="label" x="340" y="294"><tspan x="340" dy="0">Raft</tspan><tspan x="340" dy="17">多数派提交</tspan></text>

  <rect class="node" x="448" y="274" width="128" height="54"/>
  <text class="label" x="512" y="294"><tspan x="512" dy="0">TiKV Store</tspan><tspan x="512" dy="17">分布于不同节点</tspan></text>

  <path class="edge" d="M180 139 H224"/>
  <text class="edgeText" x="202" y="82">encode tablecodec</text>
  <text class="edgeText" x="202" y="96">t{tid}_r{rid} / t{tid}_i{iid}</text>

  <path class="edge" d="M360 139 H404"/>
  <text class="edgeText" x="382" y="82">split：256MiB / keys</text>
  <text class="edgeText" x="382" y="96">load / split-key</text>

  <path class="edge" d="M473 166 C473 214 390 224 350 272"/>
  <text class="edgeText" x="438" y="210">Region = Raft Group，3 副本</text>

  <path class="edge dashed" d="M224 301 H276"/>
  <text class="edgeText" x="250" y="340">range location / 调度元数据</text>

  <path class="edge" d="M404 301 H448"/>

  <rect class="panel" x="635" y="26" width="585" height="388"/>
  <text class="title" x="927.5" y="54">OceanBase：Partition + Tablet + LS 路径</text>

  <rect class="node" x="660" y="112" width="86" height="54"/>
  <text class="label" x="703" y="139">Table</text>

  <rect class="node" x="784" y="112" width="118" height="54"/>
  <text class="label" x="843" y="133"><tspan x="843" dy="0">Partition</tspan><tspan x="843" dy="17">逻辑</tspan></text>

  <rect class="node" x="940" y="112" width="118" height="54"/>
  <text class="label" x="999" y="133"><tspan x="999" dy="0">Tablet</tspan><tspan x="999" dy="17">存储对象</tspan></text>

  <rect class="node" x="1090" y="112" width="110" height="54"/>
  <text class="label" x="1145" y="133"><tspan x="1145" dy="0">Log Stream</tspan><tspan x="1145" dy="17">(LS)</tspan></text>

  <rect class="node" x="676" y="266" width="154" height="70"/>
  <text class="label" x="753" y="285"><tspan x="753" dy="0">RootService</tspan><tspan x="753" dy="17">(sys tenant)</tspan><tspan x="753" dy="17">均衡 / transfer</tspan></text>

  <rect class="node" x="876" y="274" width="150" height="54"/>
  <text class="label" x="951" y="294"><tspan x="951" dy="0">多数派持久化</tspan><tspan x="951" dy="17">推进事务状态</tspan></text>

  <rect class="node" x="1068" y="274" width="128" height="54"/>
  <text class="label" x="1132" y="301">OBServer / Zone</text>

  <path class="edge" d="M746 139 H784"/>
  <text class="edgeText" x="765" y="84">PARTITION BY</text>

  <path class="edge" d="M902 139 H940"/>
  <text class="edgeText" x="921" y="84">每物理分区 1:1</text>

  <path class="edge" d="M1058 139 H1090"/>
  <text class="edgeText" x="1074" y="82">tablet-to-LS 映射</text>
  <text class="edgeText" x="1074" y="96">随 LS 被调度</text>

  <path class="edge" d="M1145 166 C1145 214 1018 224 966 272"/>
  <text class="edgeText" x="1084" y="210">Multi-Paxos / PALF 复制式 WAL</text>

  <path class="edge dashed" d="M830 301 H876"/>
  <text class="edgeText" x="853" y="340">调度</text>

  <path class="edge" d="M1026 301 H1068"/>
</svg>
