<svg id="sv_f21_2" width="100%" xmlns="http://www.w3.org/2000/svg" xmlns:xlink="http://www.w3.org/1999/xlink" class="flowchart" style="max-width: 1386px; background-color: white;" viewBox="0 0 1386 990" role="graphics-document document" aria-roledescription="flowchart-v2"><style>#sv_f21_2{font-family:"trebuchet ms",verdana,arial,sans-serif;font-size:16px;fill:#333;}@keyframes edge-animation-frame{from{stroke-dashoffset:0;}}@keyframes dash{to{stroke-dashoffset:0;}}#sv_f21_2 .edge-animation-slow{stroke-dasharray:9,5!important;stroke-dashoffset:900;animation:dash 50s linear infinite;stroke-linecap:round;}#sv_f21_2 .edge-animation-fast{stroke-dasharray:9,5!important;stroke-dashoffset:900;animation:dash 20s linear infinite;stroke-linecap:round;}#sv_f21_2 .error-icon{fill:#552222;}#sv_f21_2 .error-text{fill:#552222;stroke:#552222;}#sv_f21_2 .edge-thickness-normal{stroke-width:1px;}#sv_f21_2 .edge-thickness-thick{stroke-width:3.5px;}#sv_f21_2 .edge-pattern-solid{stroke-dasharray:0;}#sv_f21_2 .edge-thickness-invisible{stroke-width:0;fill:none;}#sv_f21_2 .edge-pattern-dashed{stroke-dasharray:3;}#sv_f21_2 .edge-pattern-dotted{stroke-dasharray:2;}#sv_f21_2 .marker{fill:#333333;stroke:#333333;}#sv_f21_2 .marker.cross{stroke:#333333;}#sv_f21_2 svg{font-family:"trebuchet ms",verdana,arial,sans-serif;font-size:16px;}#sv_f21_2 p{margin:0;}#sv_f21_2 .label{font-family:"trebuchet ms",verdana,arial,sans-serif;color:#333;}#sv_f21_2 .cluster-label text{fill:#333;}#sv_f21_2 .cluster-label span{color:#333;}#sv_f21_2 .cluster-label span p{background-color:transparent;}#sv_f21_2 .label text,#sv_f21_2 span{fill:#333;color:#333;}#sv_f21_2 .node rect,#sv_f21_2 .node circle,#sv_f21_2 .node ellipse,#sv_f21_2 .node polygon,#sv_f21_2 .node path{fill:#ECECFF;stroke:#9370DB;stroke-width:1px;}#sv_f21_2 .rough-node .label text,#sv_f21_2 .node .label text,#sv_f21_2 .image-shape .label,#sv_f21_2 .icon-shape .label{text-anchor:middle;}#sv_f21_2 .node .katex path{fill:#000;stroke:#000;stroke-width:1px;}#sv_f21_2 .rough-node .label,#sv_f21_2 .node .label,#sv_f21_2 .image-shape .label,#sv_f21_2 .icon-shape .label{text-align:center;}#sv_f21_2 .node.clickable{cursor:pointer;}#sv_f21_2 .root .anchor path{fill:#333333!important;stroke-width:0;stroke:#333333;}#sv_f21_2 .arrowheadPath{fill:#333333;}#sv_f21_2 .edgePath .path{stroke:#333333;stroke-width:1px;}#sv_f21_2 .flowchart-link{stroke:#333333;fill:none;}#sv_f21_2 .edgeLabel{background-color:rgba(232,232,232, 0.8);text-align:center;}#sv_f21_2 .edgeLabel p{background-color:rgba(232,232,232, 0.8);}#sv_f21_2 .edgeLabel rect{opacity:0.5;background-color:rgba(232,232,232, 0.8);fill:rgba(232,232,232, 0.8);}#sv_f21_2 .labelBkg{background-color:rgba(232, 232, 232, 0.5);}#sv_f21_2 .cluster rect{fill:#ffffff;stroke:#aab0bb;stroke-width:1px;}#sv_f21_2 .cluster text{fill:#333;}#sv_f21_2 .cluster span{color:#333;}#sv_f21_2 div.mermaidTooltip{position:absolute;text-align:center;max-width:200px;padding:2px;font-family:"trebuchet ms",verdana,arial,sans-serif;font-size:12px;background:hsl(80, 100%, 96.2745098039%);border:1px solid #aaaa33;border-radius:2px;pointer-events:none;z-index:100;}#sv_f21_2 .flowchartTitleText{text-anchor:middle;font-size:18px;fill:#333;}#sv_f21_2 rect.text{fill:none;stroke-width:0;}#sv_f21_2 .icon-shape,#sv_f21_2 .image-shape{background-color:rgba(232,232,232, 0.8);text-align:center;}#sv_f21_2 .icon-shape p,#sv_f21_2 .image-shape p{background-color:rgba(232,232,232, 0.8);padding:2px;}#sv_f21_2 .icon-shape .label rect,#sv_f21_2 .image-shape .label rect{opacity:0.5;background-color:rgba(232,232,232, 0.8);fill:rgba(232,232,232, 0.8);}#sv_f21_2 .label-icon{display:inline-block;height:1em;overflow:visible;vertical-align:-0.125em;}#sv_f21_2 .node .label-icon path{fill:currentColor;stroke:revert;stroke-width:revert;}#sv_f21_2 .node .neo-node{stroke:#9370DB;}#sv_f21_2 [data-look="neo"].node rect,#sv_f21_2 [data-look="neo"].cluster rect,#sv_f21_2 [data-look="neo"].node polygon{stroke:#9370DB;filter:drop-shadow(1px 2px 2px rgba(185, 185, 185, 1));}#sv_f21_2 [data-look="neo"].node path{stroke:#9370DB;stroke-width:1px;}#sv_f21_2 [data-look="neo"].node .outer-path{filter:drop-shadow(1px 2px 2px rgba(185, 185, 185, 1));}#sv_f21_2 [data-look="neo"].node .neo-line path{stroke:#9370DB;filter:none;}#sv_f21_2 [data-look="neo"].node circle{stroke:#9370DB;filter:drop-shadow(1px 2px 2px rgba(185, 185, 185, 1));}#sv_f21_2 [data-look="neo"].node circle .state-start{fill:#000000;}#sv_f21_2 [data-look="neo"].icon-shape .icon{fill:#9370DB;filter:drop-shadow(1px 2px 2px rgba(185, 185, 185, 1));}#sv_f21_2 [data-look="neo"].icon-shape .icon-neo path{stroke:#9370DB;filter:drop-shadow(1px 2px 2px rgba(185, 185, 185, 1));}#sv_f21_2 :root{--mermaid-font-family:"trebuchet ms",verdana,arial,sans-serif;}</style><g><marker id="sv_f21_2_flowchart-v2-pointEnd" class="marker flowchart-v2" viewBox="0 0 10 10" refX="5" refY="5" markerUnits="userSpaceOnUse" markerWidth="8" markerHeight="8" orient="auto"><path d="M 0 0 L 10 5 L 0 10 z" class="arrowMarkerPath" style="stroke-width: 1; stroke-dasharray: 1, 0;"/></marker><marker id="sv_f21_2_flowchart-v2-pointStart" class="marker flowchart-v2" viewBox="0 0 10 10" refX="4.5" refY="5" markerUnits="userSpaceOnUse" markerWidth="8" markerHeight="8" orient="auto"><path d="M 0 5 L 10 10 L 10 0 z" class="arrowMarkerPath" style="stroke-width: 1; stroke-dasharray: 1, 0;"/></marker><marker id="sv_f21_2_flowchart-v2-pointEnd-margin" class="marker flowchart-v2" viewBox="0 0 11.5 14" refX="11.5" refY="7" markerUnits="userSpaceOnUse" markerWidth="10.5" markerHeight="14" orient="auto"><path d="M 0 0 L 11.5 7 L 0 14 z" class="arrowMarkerPath" style="stroke-width: 0; stroke-dasharray: 1, 0;"/></marker><marker id="sv_f21_2_flowchart-v2-pointStart-margin" class="marker flowchart-v2" viewBox="0 0 11.5 14" refX="1" refY="7" markerUnits="userSpaceOnUse" markerWidth="11.5" markerHeight="14" orient="auto"><polygon points="0,7 11.5,14 11.5,0" class="arrowMarkerPath" style="stroke-width: 0; stroke-dasharray: 1, 0;"/></marker><marker id="sv_f21_2_flowchart-v2-circleEnd" class="marker flowchart-v2" viewBox="0 0 10 10" refX="11" refY="5" markerUnits="userSpaceOnUse" markerWidth="11" markerHeight="11" orient="auto"><circle cx="5" cy="5" r="5" class="arrowMarkerPath" style="stroke-width: 1; stroke-dasharray: 1, 0;"/></marker><marker id="sv_f21_2_flowchart-v2-circleStart" class="marker flowchart-v2" viewBox="0 0 10 10" refX="-1" refY="5" markerUnits="userSpaceOnUse" markerWidth="11" markerHeight="11" orient="auto"><circle cx="5" cy="5" r="5" class="arrowMarkerPath" style="stroke-width: 1; stroke-dasharray: 1, 0;"/></marker><marker id="sv_f21_2_flowchart-v2-circleEnd-margin" class="marker flowchart-v2" viewBox="0 0 10 10" refY="5" refX="12.25" markerUnits="userSpaceOnUse" markerWidth="14" markerHeight="14" orient="auto"><circle cx="5" cy="5" r="5" class="arrowMarkerPath" style="stroke-width: 0; stroke-dasharray: 1, 0;"/></marker><marker id="sv_f21_2_flowchart-v2-circleStart-margin" class="marker flowchart-v2" viewBox="0 0 10 10" refX="-2" refY="5" markerUnits="userSpaceOnUse" markerWidth="14" markerHeight="14" orient="auto"><circle cx="5" cy="5" r="5" class="arrowMarkerPath" style="stroke-width: 0; stroke-dasharray: 1, 0;"/></marker><marker id="sv_f21_2_flowchart-v2-crossEnd" class="marker cross flowchart-v2" viewBox="0 0 11 11" refX="12" refY="5.2" markerUnits="userSpaceOnUse" markerWidth="11" markerHeight="11" orient="auto"><path d="M 1,1 l 9,9 M 10,1 l -9,9" class="arrowMarkerPath" style="stroke-width: 2; stroke-dasharray: 1, 0;"/></marker><marker id="sv_f21_2_flowchart-v2-crossStart" class="marker cross flowchart-v2" viewBox="0 0 11 11" refX="-1" refY="5.2" markerUnits="userSpaceOnUse" markerWidth="11" markerHeight="11" orient="auto"><path d="M 1,1 l 9,9 M 10,1 l -9,9" class="arrowMarkerPath" style="stroke-width: 2; stroke-dasharray: 1, 0;"/></marker><marker id="sv_f21_2_flowchart-v2-crossEnd-margin" class="marker cross flowchart-v2" viewBox="0 0 15 15" refX="17.7" refY="7.5" markerUnits="userSpaceOnUse" markerWidth="12" markerHeight="12" orient="auto"><path d="M 1,1 L 14,14 M 1,14 L 14,1" class="arrowMarkerPath" style="stroke-width: 2.5;"/></marker><marker id="sv_f21_2_flowchart-v2-crossStart-margin" class="marker cross flowchart-v2" viewBox="0 0 15 15" refX="-3.5" refY="7.5" markerUnits="userSpaceOnUse" markerWidth="12" markerHeight="12" orient="auto"><path d="M 1,1 L 14,14 M 1,14 L 14,1" class="arrowMarkerPath" style="stroke-width: 2.5; stroke-dasharray: 1, 0;"/></marker><g class="root"><g class="clusters"/><g class="edgePaths"><path d="M766,39.672L661.333,47.56C556.667,55.448,347.333,71.224,242.667,82.612C138,94,138,101,138,104.5L138,108" id="sv_f21_2-L_S_TLS_0" class="edge-thickness-normal edge-pattern-solid edge-thickness-normal edge-pattern-solid flowchart-link" style=";" data-edge="true" data-et="edge" data-id="L_S_TLS_0" data-points="W3sieCI6NzY2LCJ5IjozOS42NzI0NjM3NjgxMTU5NH0seyJ4IjoxMzgsInkiOjg3fSx7IngiOjEzOCwieSI6MTEyfV0=" data-look="classic" marker-end="url(#sv_f21_2_flowchart-v2-pointEnd)"/><path d="M138,190L138,194.167C138,198.333,138,206.667,138,214.333C138,222,138,229,138,232.5L138,236" id="sv_f21_2-L_TLS_R1_0" class="edge-thickness-normal edge-pattern-solid edge-thickness-normal edge-pattern-solid flowchart-link" style=";" data-edge="true" data-et="edge" data-id="L_TLS_R1_0" data-points="W3sieCI6MTM4LCJ5IjoxOTB9LHsieCI6MTM4LCJ5IjoyMTV9LHsieCI6MTM4LCJ5IjoyNDB9XQ==" data-look="classic" marker-end="url(#sv_f21_2_flowchart-v2-pointEnd)"/><path d="M870.577,62L877.147,66.167C883.718,70.333,896.859,78.667,903.429,93.5C910,108.333,910,129.667,910,151C910,172.333,910,193.667,853.661,211.973C797.321,230.278,684.642,245.557,628.303,253.196L571.964,260.835" id="sv_f21_2-L_S_PRIV_0" class="edge-thickness-normal edge-pattern-solid edge-thickness-normal edge-pattern-solid flowchart-link" style=";" data-edge="true" data-et="edge" data-id="L_S_PRIV_0" data-points="W3sieCI6ODcwLjU3NjkyMzA3NjkyMzEsInkiOjYyfSx7IngiOjkxMCwieSI6ODd9LHsieCI6OTEwLCJ5IjoxNTF9LHsieCI6OTEwLCJ5IjoyMTV9LHsieCI6NTY4LCJ5IjoyNjEuMzcyODgxMzU1OTMyMn1d" data-look="classic" marker-end="url(#sv_f21_2_flowchart-v2-pointEnd)"/><path d="M395.344,318L390.786,322.167C386.229,326.333,377.115,334.667,372.557,342.333C368,350,368,357,368,360.5L368,364" id="sv_f21_2-L_PRIV_R2_0" class="edge-thickness-normal edge-pattern-solid edge-thickness-normal edge-pattern-solid flowchart-link" style=";" data-edge="true" data-et="edge" data-id="L_PRIV_R2_0" data-points="W3sieCI6Mzk1LjM0Mzc1LCJ5IjozMTh9LHsieCI6MzY4LCJ5IjozNDN9LHsieCI6MzY4LCJ5IjozNjh9XQ==" data-look="classic" marker-end="url(#sv_f21_2_flowchart-v2-pointEnd)"/><path d="M890,53.744L908.333,59.287C926.667,64.829,963.333,75.915,981.667,92.124C1000,108.333,1000,129.667,1000,151C1000,172.333,1000,193.667,1000,215C1000,236.333,1000,257.667,1000,279C1000,300.333,1000,321.667,966.988,338.697C933.976,355.728,867.952,368.455,834.94,374.819L801.928,381.183" id="sv_f21_2-L_S_AUD_0" class="edge-thickness-normal edge-pattern-solid edge-thickness-normal edge-pattern-solid flowchart-link" style=";" data-edge="true" data-et="edge" data-id="L_S_AUD_0" data-points="W3sieCI6ODkwLCJ5Ijo1My43NDQxODYwNDY1MTE2M30seyJ4IjoxMDAwLCJ5Ijo4N30seyJ4IjoxMDAwLCJ5IjoxNTF9LHsieCI6MTAwMCwieSI6MjE1fSx7IngiOjEwMDAsInkiOjI3OX0seyJ4IjoxMDAwLCJ5IjozNDN9LHsieCI6Nzk4LCJ5IjozODEuOTM5NzU5MDM2MTQ0NTV9XQ==" data-look="classic" marker-end="url(#sv_f21_2_flowchart-v2-pointEnd)"/><path d="M625.344,446L620.786,450.167C616.229,454.333,607.115,462.667,602.557,470.333C598,478,598,485,598,488.5L598,492" id="sv_f21_2-L_AUD_R3_0" class="edge-thickness-normal edge-pattern-solid edge-thickness-normal edge-pattern-solid flowchart-link" style=";" data-edge="true" data-et="edge" data-id="L_AUD_R3_0" data-points="W3sieCI6NjI1LjM0Mzc1LCJ5Ijo0NDZ9LHsieCI6NTk4LCJ5Ijo0NzF9LHsieCI6NTk4LCJ5Ijo0OTZ9XQ==" data-look="classic" marker-end="url(#sv_f21_2_flowchart-v2-pointEnd)"/><path d="M890,47.305L923.333,53.921C956.667,60.537,1023.333,73.768,1056.667,91.051C1090,108.333,1090,129.667,1090,151C1090,172.333,1090,193.667,1090,215C1090,236.333,1090,257.667,1090,279C1090,300.333,1090,321.667,1090,343C1090,364.333,1090,385.667,1090,407C1090,428.333,1090,449.667,1075.041,466.255C1060.082,482.843,1030.164,494.685,1015.205,500.607L1000.246,506.528" id="sv_f21_2-L_S_KMS_0" class="edge-thickness-normal edge-pattern-solid edge-thickness-normal edge-pattern-solid flowchart-link" style=";" data-edge="true" data-et="edge" data-id="L_S_KMS_0" data-points="W3sieCI6ODkwLCJ5Ijo0Ny4zMDUzNDM1MTE0NTAzOH0seyJ4IjoxMDkwLCJ5Ijo4N30seyJ4IjoxMDkwLCJ5IjoxNTF9LHsieCI6MTA5MCwieSI6MjE1fSx7IngiOjEwOTAsInkiOjI3OX0seyJ4IjoxMDkwLCJ5IjozNDN9LHsieCI6MTA5MCwieSI6NDA3fSx7IngiOjEwOTAsInkiOjQ3MX0seyJ4Ijo5OTYuNTI2MzE1Nzg5NDczNiwieSI6NTA4fV0=" data-look="classic" marker-end="url(#sv_f21_2_flowchart-v2-pointEnd)"/><path d="M769.711,586L749.425,592.167C729.14,598.333,688.57,610.667,668.285,620.333C648,630,648,637,648,640.5L648,644" id="sv_f21_2-L_KMS_R4_0" class="edge-thickness-normal edge-pattern-solid edge-thickness-normal edge-pattern-solid flowchart-link" style=";" data-edge="true" data-et="edge" data-id="L_KMS_R4_0" data-points="W3sieCI6NzY5LjcxMDUyNjMxNTc4OTUsInkiOjU4Nn0seyJ4Ijo2NDgsInkiOjYyM30seyJ4Ijo2NDgsInkiOjY0OH1d" data-look="classic" marker-end="url(#sv_f21_2_flowchart-v2-pointEnd)"/><path d="M890,44.159L938.333,51.299C986.667,58.439,1083.333,72.72,1131.667,90.527C1180,108.333,1180,129.667,1180,151C1180,172.333,1180,193.667,1180,215C1180,236.333,1180,257.667,1180,279C1180,300.333,1180,321.667,1180,343C1180,364.333,1180,385.667,1180,407C1180,428.333,1180,449.667,1180,473C1180,496.333,1180,521.667,1180,547C1180,572.333,1180,597.667,1172.648,614.19C1165.295,630.714,1150.591,638.428,1143.238,642.285L1135.886,646.142" id="sv_f21_2-L_S_TEN_0" class="edge-thickness-normal edge-pattern-solid edge-thickness-normal edge-pattern-solid flowchart-link" style=";" data-edge="true" data-et="edge" data-id="L_S_TEN_0" data-points="W3sieCI6ODkwLCJ5Ijo0NC4xNTkwOTA5MDkwOTA5MX0seyJ4IjoxMTgwLCJ5Ijo4N30seyJ4IjoxMTgwLCJ5IjoxNTF9LHsieCI6MTE4MCwieSI6MjE1fSx7IngiOjExODAsInkiOjI3OX0seyJ4IjoxMTgwLCJ5IjozNDN9LHsieCI6MTE4MCwieSI6NDA3fSx7IngiOjExODAsInkiOjQ3MX0seyJ4IjoxMTgwLCJ5Ijo1NDd9LHsieCI6MTE4MCwieSI6NjIzfSx7IngiOjExMzIuMzQzNzUsInkiOjY0OH1d" data-look="classic" marker-end="url(#sv_f21_2_flowchart-v2-pointEnd)"/><path d="M1032.406,726L1029.672,730.167C1026.938,734.333,1021.469,742.667,1018.734,752.333C1016,762,1016,773,1016,778.5L1016,784" id="sv_f21_2-L_TEN_R5_0" class="edge-thickness-normal edge-pattern-solid edge-thickness-normal edge-pattern-solid flowchart-link" style=";" data-edge="true" data-et="edge" data-id="L_TEN_R5_0" data-points="W3sieCI6MTAzMi40MDYyNSwieSI6NzI2fSx7IngiOjEwMTYsInkiOjc1MX0seyJ4IjoxMDE2LCJ5Ijo3ODh9XQ==" data-look="classic" marker-end="url(#sv_f21_2_flowchart-v2-pointEnd)"/><path d="M890,42.294L953.333,49.745C1016.667,57.196,1143.333,72.098,1206.667,90.216C1270,108.333,1270,129.667,1270,151C1270,172.333,1270,193.667,1270,215C1270,236.333,1270,257.667,1270,279C1270,300.333,1270,321.667,1270,343C1270,364.333,1270,385.667,1270,407C1270,428.333,1270,449.667,1270,473C1270,496.333,1270,521.667,1270,547C1270,572.333,1270,597.667,1270,621C1270,644.333,1270,665.667,1270,687C1270,708.333,1270,729.667,1269.139,745.841C1268.279,762.016,1266.558,773.032,1265.697,778.54L1264.836,784.048" id="sv_f21_2-L_S_BAK_0" class="edge-thickness-normal edge-pattern-solid edge-thickness-normal edge-pattern-solid flowchart-link" style=";" data-edge="true" data-et="edge" data-id="L_S_BAK_0" data-points="W3sieCI6ODkwLCJ5Ijo0Mi4yOTQxMTc2NDcwNTg4MjZ9LHsieCI6MTI3MCwieSI6ODd9LHsieCI6MTI3MCwieSI6MTUxfSx7IngiOjEyNzAsInkiOjIxNX0seyJ4IjoxMjcwLCJ5IjoyNzl9LHsieCI6MTI3MCwieSI6MzQzfSx7IngiOjEyNzAsInkiOjQwN30seyJ4IjoxMjcwLCJ5Ijo0NzF9LHsieCI6MTI3MCwieSI6NTQ3fSx7IngiOjEyNzAsInkiOjYyM30seyJ4IjoxMjcwLCJ5Ijo2ODd9LHsieCI6MTI3MCwieSI6NzUxfSx7IngiOjEyNjQuMjE4NzUsInkiOjc4OH1d" data-look="classic" marker-end="url(#sv_f21_2_flowchart-v2-pointEnd)"/><path d="M1260,842L1260,848.167C1260,854.333,1260,866.667,1260,878.333C1260,890,1260,901,1260,906.5L1260,912" id="sv_f21_2-L_BAK_R6_0" class="edge-thickness-normal edge-pattern-solid edge-thickness-normal edge-pattern-solid flowchart-link" style=";" data-edge="true" data-et="edge" data-id="L_BAK_R6_0" data-points="W3sieCI6MTI2MCwieSI6ODQyfSx7IngiOjEyNjAsInkiOjg3OX0seyJ4IjoxMjYwLCJ5Ijo5MTZ9XQ==" data-look="classic" marker-end="url(#sv_f21_2_flowchart-v2-pointEnd)"/><path d="M851.816,586L844.513,592.167C837.211,598.333,822.605,610.667,815.303,627.5C808,644.333,808,665.667,808,687C808,708.333,808,729.667,803.312,744.084C798.624,758.5,789.249,766.001,784.561,769.751L779.873,773.501" id="sv_f21_2-L_KMS_VER_0" class="edge-thickness-normal edge-pattern-solid edge-thickness-normal edge-pattern-solid flowchart-link" style=";" data-edge="true" data-et="edge" data-id="L_KMS_VER_0" data-points="W3sieCI6ODUxLjgxNTc4OTQ3MzY4NDIsInkiOjU4Nn0seyJ4Ijo4MDgsInkiOjYyM30seyJ4Ijo4MDgsInkiOjY4N30seyJ4Ijo4MDgsInkiOjc1MX0seyJ4Ijo3NzYuNzUsInkiOjc3Nn1d" data-look="classic" marker-end="url(#sv_f21_2_flowchart-v2-pointEnd)"/><path d="M728,854L728,858.167C728,862.333,728,870.667,728,878.333C728,886,728,893,728,896.5L728,900" id="sv_f21_2-L_VER_R7_0" class="edge-thickness-normal edge-pattern-solid edge-thickness-normal edge-pattern-solid flowchart-link" style=";" data-edge="true" data-et="edge" data-id="L_VER_R7_0" data-points="W3sieCI6NzI4LCJ5Ijo4NTR9LHsieCI6NzI4LCJ5Ijo4Nzl9LHsieCI6NzI4LCJ5Ijo5MDR9XQ==" data-look="classic" marker-end="url(#sv_f21_2_flowchart-v2-pointEnd)"/><path d="M235.5,190L245.917,194.167C256.333,198.333,277.167,206.667,296.698,215C316.229,223.333,334.458,231.667,343.573,235.833L352.688,240" id="sv_f21_2-L_TLS_PRIV_0" class="edge-thickness-invisible edge-pattern-solid" style=";" data-edge="true" data-et="edge" data-id="L_TLS_PRIV_0" data-points="W3sieCI6MjM1LjUsInkiOjE5MH0seyJ4IjoyOTgsInkiOjIxNX0seyJ4IjozNTIuNjg3NSwieSI6MjQwfV0=" data-look="classic"/><path d="M529.406,318L539.172,322.167C548.938,326.333,568.469,334.667,583.443,343C598.417,351.333,608.833,359.667,614.042,363.833L619.25,368" id="sv_f21_2-L_PRIV_AUD_0" class="edge-thickness-invisible edge-pattern-solid" style=";" data-edge="true" data-et="edge" data-id="L_PRIV_AUD_0" data-points="W3sieCI6NTI5LjQwNjI1LCJ5IjozMTh9LHsieCI6NTg4LCJ5IjozNDN9LHsieCI6NjE5LjI1LCJ5IjozNjh9XQ==" data-look="classic"/><path d="M759.406,446L769.172,450.167C778.938,454.333,798.469,462.667,814.726,473C830.982,483.333,843.965,495.667,850.456,501.833L856.947,508" id="sv_f21_2-L_AUD_KMS_0" class="edge-thickness-invisible edge-pattern-solid" style=";" data-edge="true" data-et="edge" data-id="L_AUD_KMS_0" data-points="W3sieCI6NzU5LjQwNjI1LCJ5Ijo0NDZ9LHsieCI6ODE4LCJ5Ijo0NzF9LHsieCI6ODU2Ljk0NzM2ODQyMTA1MjYsInkiOjUwOH1d" data-look="classic"/><path d="M939.053,586L945.544,592.167C952.035,598.333,965.018,610.667,976.717,621C988.417,631.333,998.833,639.667,1004.042,643.833L1009.25,648" id="sv_f21_2-L_KMS_TEN_0" class="edge-thickness-invisible edge-pattern-solid" style=";" data-edge="true" data-et="edge" data-id="L_KMS_TEN_0" data-points="W3sieCI6OTM5LjA1MjYzMTU3ODk0NzQsInkiOjU4Nn0seyJ4Ijo5NzgsInkiOjYyM30seyJ4IjoxMDA5LjI1LCJ5Ijo2NDh9XQ==" data-look="classic"/><path d="M1132.344,726L1140.286,730.167C1148.229,734.333,1164.115,742.667,1179.766,753C1195.417,763.333,1210.833,775.667,1218.542,781.833L1226.25,788" id="sv_f21_2-L_TEN_BAK_0" class="edge-thickness-invisible edge-pattern-solid" style=";" data-edge="true" data-et="edge" data-id="L_TEN_BAK_0" data-points="W3sieCI6MTEzMi4zNDM3NSwieSI6NzI2fSx7IngiOjExODAsInkiOjc1MX0seyJ4IjoxMjI2LjI1LCJ5Ijo3ODh9XQ==" data-look="classic"/><path d="M648,726L648,730.167C648,734.333,648,742.667,653.208,751C658.417,759.333,668.833,767.667,674.042,771.833L679.25,776" id="sv_f21_2-L_R4_VER_0" class="edge-thickness-invisible edge-pattern-solid" style=";" data-edge="true" data-et="edge" data-id="L_R4_VER_0" data-points="W3sieCI6NjQ4LCJ5Ijo3MjZ9LHsieCI6NjQ4LCJ5Ijo3NTF9LHsieCI6Njc5LjI1LCJ5Ijo3NzZ9XQ==" data-look="classic"/></g><g class="edgeLabels"><g class="edgeLabel"><g class="label" data-id="L_S_TLS_0" transform="translate(0, 0)"><text y="-10.1" text-anchor="middle"><tspan class="text-outer-tspan row" x="0" y="-0.1em" dy="1.1em" text-anchor="middle"/></text></g></g><g><rect class="background" style="stroke: none"/></g><g class="edgeLabel"><g class="label" data-id="L_TLS_R1_0" transform="translate(0, 0)"><text y="-10.1" text-anchor="middle"><tspan class="text-outer-tspan row" x="0" y="-0.1em" dy="1.1em" text-anchor="middle"/></text></g></g><g><rect class="background" style="stroke: none"/></g><g class="edgeLabel"><g class="label" data-id="L_S_PRIV_0" transform="translate(0, 0)"><text y="-10.1" text-anchor="middle"><tspan class="text-outer-tspan row" x="0" y="-0.1em" dy="1.1em" text-anchor="middle"/></text></g></g><g><rect class="background" style="stroke: none"/></g><g class="edgeLabel"><g class="label" data-id="L_PRIV_R2_0" transform="translate(0, 0)"><text y="-10.1" text-anchor="middle"><tspan class="text-outer-tspan row" x="0" y="-0.1em" dy="1.1em" text-anchor="middle"/></text></g></g><g><rect class="background" style="stroke: none"/></g><g class="edgeLabel"><g class="label" data-id="L_S_AUD_0" transform="translate(0, 0)"><text y="-10.1" text-anchor="middle"><tspan class="text-outer-tspan row" x="0" y="-0.1em" dy="1.1em" text-anchor="middle"/></text></g></g><g><rect class="background" style="stroke: none"/></g><g class="edgeLabel"><g class="label" data-id="L_AUD_R3_0" transform="translate(0, 0)"><text y="-10.1" text-anchor="middle"><tspan class="text-outer-tspan row" x="0" y="-0.1em" dy="1.1em" text-anchor="middle"/></text></g></g><g><rect class="background" style="stroke: none"/></g><g class="edgeLabel"><g class="label" data-id="L_S_KMS_0" transform="translate(0, 0)"><text y="-10.1" text-anchor="middle"><tspan class="text-outer-tspan row" x="0" y="-0.1em" dy="1.1em" text-anchor="middle"/></text></g></g><g><rect class="background" style="stroke: none"/></g><g class="edgeLabel"><g class="label" data-id="L_KMS_R4_0" transform="translate(0, 0)"><text y="-10.1" text-anchor="middle"><tspan class="text-outer-tspan row" x="0" y="-0.1em" dy="1.1em" text-anchor="middle"/></text></g></g><g><rect class="background" style="stroke: none"/></g><g class="edgeLabel"><g class="label" data-id="L_S_TEN_0" transform="translate(0, 0)"><text y="-10.1" text-anchor="middle"><tspan class="text-outer-tspan row" x="0" y="-0.1em" dy="1.1em" text-anchor="middle"/></text></g></g><g><rect class="background" style="stroke: none"/></g><g class="edgeLabel"><g class="label" data-id="L_TEN_R5_0" transform="translate(0, 0)"><text y="-10.1" text-anchor="middle"><tspan class="text-outer-tspan row" x="0" y="-0.1em" dy="1.1em" text-anchor="middle"/></text></g></g><g><rect class="background" style="stroke: none"/></g><g class="edgeLabel"><g class="label" data-id="L_S_BAK_0" transform="translate(0, 0)"><text y="-10.1" text-anchor="middle"><tspan class="text-outer-tspan row" x="0" y="-0.1em" dy="1.1em" text-anchor="middle"/></text></g></g><g><rect class="background" style="stroke: none"/></g><g class="edgeLabel"><g class="label" data-id="L_BAK_R6_0" transform="translate(0, 0)"><text y="-10.1" text-anchor="middle"><tspan class="text-outer-tspan row" x="0" y="-0.1em" dy="1.1em" text-anchor="middle"/></text></g></g><g><rect class="background" style="stroke: none"/></g><g class="edgeLabel"><g class="label" data-id="L_KMS_VER_0" transform="translate(0, 0)"><text y="-10.1" text-anchor="middle"><tspan class="text-outer-tspan row" x="0" y="-0.1em" dy="1.1em" text-anchor="middle"/></text></g></g><g><rect class="background" style="stroke: none"/></g><g class="edgeLabel"><g class="label" data-id="L_VER_R7_0" transform="translate(0, 0)"><text y="-10.1" text-anchor="middle"><tspan class="text-outer-tspan row" x="0" y="-0.1em" dy="1.1em" text-anchor="middle"/></text></g></g><g><rect class="background" style="stroke: none"/></g><g class="edgeLabel"><g class="label" data-id="L_TLS_PRIV_0" transform="translate(0, 0)"><text y="-10.1" text-anchor="middle"><tspan class="text-outer-tspan row" x="0" y="-0.1em" dy="1.1em" text-anchor="middle"/></text></g></g><g><rect class="background" style="stroke: none"/></g><g class="edgeLabel"><g class="label" data-id="L_PRIV_AUD_0" transform="translate(0, 0)"><text y="-10.1" text-anchor="middle"><tspan class="text-outer-tspan row" x="0" y="-0.1em" dy="1.1em" text-anchor="middle"/></text></g></g><g><rect class="background" style="stroke: none"/></g><g class="edgeLabel"><g class="label" data-id="L_AUD_KMS_0" transform="translate(0, 0)"><text y="-10.1" text-anchor="middle"><tspan class="text-outer-tspan row" x="0" y="-0.1em" dy="1.1em" text-anchor="middle"/></text></g></g><g><rect class="background" style="stroke: none"/></g><g class="edgeLabel"><g class="label" data-id="L_KMS_TEN_0" transform="translate(0, 0)"><text y="-10.1" text-anchor="middle"><tspan class="text-outer-tspan row" x="0" y="-0.1em" dy="1.1em" text-anchor="middle"/></text></g></g><g><rect class="background" style="stroke: none"/></g><g class="edgeLabel"><g class="label" data-id="L_TEN_BAK_0" transform="translate(0, 0)"><text y="-10.1" text-anchor="middle"><tspan class="text-outer-tspan row" x="0" y="-0.1em" dy="1.1em" text-anchor="middle"/></text></g></g><g><rect class="background" style="stroke: none"/></g><g class="edgeLabel"><g class="label" data-id="L_R4_VER_0" transform="translate(0, 0)"><text y="-10.1" text-anchor="middle"><tspan class="text-outer-tspan row" x="0" y="-0.1em" dy="1.1em" text-anchor="middle"/></text></g></g><g><rect class="background" style="stroke: none"/></g></g><g class="nodes"><g class="node default" id="sv_f21_2-flowchart-S-0" data-look="classic" transform="translate(828, 35)"><rect class="basic label-container" style="" x="-62" y="-27" width="124" height="54"/><g class="label" style="" transform="translate(-32, -12)"><rect/><foreignObject width="64" height="24"><div xmlns="http://www.w3.org/1999/xhtml" style="display: table-cell; white-space: nowrap; line-height: 1.5; max-width: 200px; text-align: center;"><span class="nodeLabel"><p>安全异常</p></span></div></foreignObject></g></g><g class="node default" id="sv_f21_2-flowchart-TLS-1" data-look="classic" transform="translate(138, 151)"><rect class="basic label-container" style="" x="-130" y="-39" width="260" height="78"/><g class="label" style="" transform="translate(-100, -24)"><rect/><foreignObject width="200" height="48"><div xmlns="http://www.w3.org/1999/xhtml" style="display: table; white-space: break-spaces; line-height: 1.5; max-width: 200px; text-align: center; width: 200px;"><span class="nodeLabel"><p>证书过期 / CA 不匹配 / AutoTLS=false 未配证书</p></span></div></foreignObject></g></g><g class="node default" id="sv_f21_2-flowchart-R1-3" data-look="classic" transform="translate(138, 279)"><rect class="basic label-container" style="" x="-130" y="-39" width="260" height="78"/><g class="label" style="" transform="translate(-100, -24)"><rect/><foreignObject width="200" height="48"><div xmlns="http://www.w3.org/1999/xhtml" style="display: table; white-space: break-spaces; line-height: 1.5; max-width: 200px; text-align: center; width: 200px;"><span class="nodeLabel"><p>连接失败，或明文传输 / 中间人风险</p></span></div></foreignObject></g></g><g class="node default" id="sv_f21_2-flowchart-PRIV-5" data-look="classic" transform="translate(438, 279)"><rect class="basic label-container" style="" x="-130" y="-39" width="260" height="78"/><g class="label" style="" transform="translate(-100, -24)"><rect/><foreignObject width="200" height="48"><div xmlns="http://www.w3.org/1999/xhtml" style="display: table; white-space: break-spaces; line-height: 1.5; max-width: 200px; text-align: center; width: 200px;"><span class="nodeLabel"><p>权限撤销滞后 / role 未启用 / SEM 误配</p></span></div></foreignObject></g></g><g class="node default" id="sv_f21_2-flowchart-R2-7" data-look="classic" transform="translate(368, 407)"><rect class="basic label-container" style="" x="-130" y="-39" width="260" height="78"/><g class="label" style="" transform="translate(-100, -24)"><rect/><foreignObject width="200" height="48"><div xmlns="http://www.w3.org/1999/xhtml" style="display: table; white-space: break-spaces; line-height: 1.5; max-width: 200px; text-align: center; width: 200px;"><span class="nodeLabel"><p>命令被错误放行，或 SUPER 误以为万能被拒</p></span></div></foreignObject></g></g><g class="node default" id="sv_f21_2-flowchart-AUD-9" data-look="classic" transform="translate(668, 407)"><rect class="basic label-container" style="" x="-130" y="-39" width="260" height="78"/><g class="label" style="" transform="translate(-100, -24)"><rect/><foreignObject width="200" height="48"><div xmlns="http://www.w3.org/1999/xhtml" style="display: table; white-space: break-spaces; line-height: 1.5; max-width: 200px; text-align: center; width: 200px;"><span class="nodeLabel"><p>审计关闭 / filter 过窄 / 存储不可写 / 内存视图淘汰</p></span></div></foreignObject></g></g><g class="node default" id="sv_f21_2-flowchart-R3-11" data-look="classic" transform="translate(598, 547)"><rect class="basic label-container" style="" x="-130" y="-51" width="260" height="102"/><g class="label" style="" transform="translate(-100, -36)"><rect/><foreignObject width="200" height="72"><div xmlns="http://www.w3.org/1999/xhtml" style="display: table; white-space: break-spaces; line-height: 1.5; max-width: 200px; text-align: center; width: 200px;"><span class="nodeLabel"><p>取证缺口(开源无插件、GV$OB_SQL_AUDIT 被冲)或敏感日志泄露</p></span></div></foreignObject></g></g><g class="node default" id="sv_f21_2-flowchart-KMS-13" data-look="classic" transform="translate(898, 547)"><rect class="basic label-container" style="" x="-130" y="-39" width="260" height="78"/><g class="label" style="" transform="translate(-100, -24)"><rect/><foreignObject width="200" height="48"><div xmlns="http://www.w3.org/1999/xhtml" style="display: table; white-space: break-spaces; line-height: 1.5; max-width: 200px; text-align: center; width: 200px;"><span class="nodeLabel"><p>KMS 不可达 / 主密钥丢失 / key policy 收紧</p></span></div></foreignObject></g></g><g class="node default" id="sv_f21_2-flowchart-R4-15" data-look="classic" transform="translate(648, 687)"><rect class="basic label-container" style="" x="-130" y="-39" width="260" height="78"/><g class="label" style="" transform="translate(-100, -24)"><rect/><foreignObject width="200" height="48"><div xmlns="http://www.w3.org/1999/xhtml" style="display: table; white-space: break-spaces; line-height: 1.5; max-width: 200px; text-align: center; width: 200px;"><span class="nodeLabel"><p>TDE / BR / 恢复无法解密；主密钥丢失即永久不可恢复</p></span></div></foreignObject></g></g><g class="node default" id="sv_f21_2-flowchart-TEN-17" data-look="classic" transform="translate(1058, 687)"><rect class="basic label-container" style="" x="-130" y="-39" width="260" height="78"/><g class="label" style="" transform="translate(-100, -24)"><rect/><foreignObject width="200" height="48"><div xmlns="http://www.w3.org/1999/xhtml" style="display: table; white-space: break-spaces; line-height: 1.5; max-width: 200px; text-align: center; width: 200px;"><span class="nodeLabel"><p>sys 租户 / Cloud 管理员凭据过宽或泄露</p></span></div></foreignObject></g></g><g class="node default" id="sv_f21_2-flowchart-R5-19" data-look="classic" transform="translate(1016, 815)"><rect class="basic label-container" style="" x="-86" y="-27" width="172" height="54"/><g class="label" style="" transform="translate(-56, -12)"><rect/><foreignObject width="112" height="24"><div xmlns="http://www.w3.org/1999/xhtml" style="display: table-cell; white-space: nowrap; line-height: 1.5; max-width: 200px; text-align: center;"><span class="nodeLabel"><p>跨租户运维越界</p></span></div></foreignObject></g></g><g class="node default" id="sv_f21_2-flowchart-BAK-21" data-look="classic" transform="translate(1260, 815)"><rect class="basic label-container" style="" x="-118" y="-27" width="236" height="54"/><g class="label" style="" transform="translate(-88, -12)"><rect/><foreignObject width="176" height="24"><div xmlns="http://www.w3.org/1999/xhtml" style="display: table-cell; white-space: nowrap; line-height: 1.5; max-width: 200px; text-align: center;"><span class="nodeLabel"><p>备份密文与密钥同域存放</p></span></div></foreignObject></g></g><g class="node default" id="sv_f21_2-flowchart-R6-23" data-look="classic" transform="translate(1260, 943)"><rect class="basic label-container" style="" x="-110" y="-27" width="220" height="54"/><g class="label" style="" transform="translate(-80, -12)"><rect/><foreignObject width="160" height="24"><div xmlns="http://www.w3.org/1999/xhtml" style="display: table-cell; white-space: nowrap; line-height: 1.5; max-width: 200px; text-align: center;"><span class="nodeLabel"><p>离线备份可被旁路解密</p></span></div></foreignObject></g></g><g class="node default" id="sv_f21_2-flowchart-VER-25" data-look="classic" transform="translate(728, 815)"><rect class="basic label-container" style="" x="-130" y="-39" width="260" height="78"/><g class="label" style="" transform="translate(-100, -24)"><rect/><foreignObject width="200" height="48"><div xmlns="http://www.w3.org/1999/xhtml" style="display: table; white-space: break-spaces; line-height: 1.5; max-width: 200px; text-align: center; width: 200px;"><span class="nodeLabel"><p>LS Leader 切换后取 master_key_version</p></span></div></foreignObject></g></g><g class="node default" id="sv_f21_2-flowchart-R7-27" data-look="classic" transform="translate(728, 943)"><rect class="basic label-container" style="" x="-130" y="-39" width="260" height="78"/><g class="label" style="" transform="translate(-100, -24)"><rect/><foreignObject width="200" height="48"><div xmlns="http://www.w3.org/1999/xhtml" style="display: table; white-space: break-spaces; line-height: 1.5; max-width: 200px; text-align: center; width: 200px;"><span class="nodeLabel"><p>版本元数据滞后 → 解密失败 / 读阻塞(虚表可观测)</p></span></div></foreignObject></g></g></g></g></g><defs><filter id="sv_f21_2-drop-shadow" height="130%" width="130%"><feDropShadow dx="4" dy="4" stdDeviation="0" flood-opacity="0.06" flood-color="#000000"/></filter></defs><defs><filter id="sv_f21_2-drop-shadow-small" height="150%" width="150%"><feDropShadow dx="2" dy="2" stdDeviation="0" flood-opacity="0.06" flood-color="#000000"/></filter></defs></svg>