<svg id="sv_f2_3" width="100%" xmlns="http://www.w3.org/2000/svg" style="max-width: 1240px; background-color: white;" viewBox="0 0 1240 520" role="img" aria-label="图 2-3 路由正常读写/调度路径">
  <defs>
    <marker id="arrow" markerWidth="10" markerHeight="10" refX="8" refY="5" orient="auto" markerUnits="strokeWidth">
      <path d="M 0 0 L 10 5 L 0 10 z" fill="#333333"/>
    </marker>
    <style>
      #sv_f2_3 { font-family: -apple-system, BlinkMacSystemFont, "Segoe UI", Arial, "Noto Sans CJK SC", "Microsoft YaHei", sans-serif; }
      #sv_f2_3 .panel { fill: #ffffff; stroke: #aab0bb; stroke-width: 1.2; }
      #sv_f2_3 .node { fill: #ffffff; stroke: #9370db; stroke-width: 1.2; rx: 4; }
      #sv_f2_3 .cache { fill: #ffffff; stroke: #9370db; stroke-width: 1.2; }
      #sv_f2_3 .title { fill: #111827; font-size: 16px; font-weight: 700; text-anchor: middle; }
      #sv_f2_3 .label { fill: #1f2937; font-size: 13px; text-anchor: middle; dominant-baseline: middle; }
      #sv_f2_3 .small { fill: #374151; font-size: 10.5px; text-anchor: middle; }
      #sv_f2_3 .edge { fill: none; stroke: #333333; stroke-width: 1.2; marker-end: url(#arrow); }
      #sv_f2_3 .dashed { stroke-dasharray: 5 4; }
    </style>
  </defs>
  <rect x="0" y="0" width="1240" height="520" fill="#ffffff"/>

  <rect class="panel" x="20" y="28" width="585" height="460"/>
  <text class="title" x="312.5" y="58">TiDB：客户端侧 Region 路由</text>

  <rect class="node" x="48" y="105" width="92" height="54"/>
  <text class="label" x="94" y="132">Client</text>
  <rect class="node" x="172" y="98" width="118" height="68"/>
  <text class="label" x="231" y="121"><tspan x="231" dy="0">TiDB Server</tspan><tspan x="231" dy="17">无状态 SQL</tspan></text>
  <polygon class="cache" points="356,92 430,132 356,172 282,132"/>
  <text class="label" x="356" y="124"><tspan x="356" dy="0">RegionCache</tspan><tspan x="356" dy="17">LocateKey</tspan></text>
  <rect class="node" x="462" y="98" width="114" height="68"/>
  <text class="label" x="519" y="121"><tspan x="519" dy="0">cop tasks</tspan><tspan x="519" dy="17">按 Region 切分</tspan></text>

  <rect class="node" x="120" y="302" width="142" height="66"/>
  <text class="label" x="191" y="321"><tspan x="191" dy="0">PD</tspan><tspan x="191" dy="17">Leader / Range</tspan><tspan x="191" dy="17">Epoch</tspan></text>
  <rect class="node" x="330" y="270" width="130" height="54"/>
  <text class="label" x="395" y="291"><tspan x="395" dy="0">TiKV Region</tspan><tspan x="395" dy="17">Leader A</tspan></text>
  <rect class="node" x="330" y="358" width="130" height="54"/>
  <text class="label" x="395" y="379"><tspan x="395" dy="0">Leader B</tspan><tspan x="395" dy="17">或可读 Follower</tspan></text>
  <rect class="node" x="490" y="314" width="86" height="54"/>
  <text class="label" x="533" y="341">汇总结果</text>

  <path class="edge" d="M140 132 H172"/>
  <path class="edge" d="M290 132 H282"/>
  <path class="edge" d="M430 132 H462"/>
  <text class="small" x="447" y="115">缓存命中</text>
  <path class="edge dashed" d="M334 158 C292 226 244 264 205 300"/>
  <text class="small" x="267" y="236">未命中 / 刷新</text>
  <path class="edge dashed" d="M262 335 C330 326 352 232 356 173"/>
  <path class="edge" d="M519 166 C500 226 445 250 408 268"/>
  <path class="edge" d="M519 166 C530 250 472 330 424 356"/>
  <path class="edge" d="M460 297 H490"/>
  <path class="edge" d="M460 385 C492 379 512 368 526 369"/>
  <path class="edge" d="M533 314 C540 220 170 210 105 160"/>

  <rect class="panel" x="635" y="28" width="585" height="460"/>
  <text class="title" x="927.5" y="58">OceanBase：代理侧 Tablet / LS 路由</text>

  <rect class="node" x="660" y="105" width="86" height="54"/>
  <text class="label" x="703" y="132">Client</text>
  <rect class="node" x="778" y="96" width="122" height="72"/>
  <text class="label" x="839" y="115"><tspan x="839" dy="0">ODP / OBProxy</tspan><tspan x="839" dy="17">cluster / tenant</tspan><tspan x="839" dy="17">SQL Parse</tspan></text>
  <rect class="node" x="932" y="98" width="128" height="68"/>
  <text class="label" x="996" y="121"><tspan x="996" dy="0">partition</tspan><tspan x="996" dy="17">pruning</tspan></text>
  <polygon class="cache" points="1136,92 1206,132 1136,172 1066,132"/>
  <text class="label" x="1136" y="124"><tspan x="1136" dy="0">本地缓存</tspan><tspan x="1136" dy="17">全局缓存</tspan></text>

  <rect class="node" x="722" y="302" width="142" height="66"/>
  <text class="label" x="793" y="321"><tspan x="793" dy="0">OBServer</tspan><tspan x="793" dy="17">位置服务</tspan><tspan x="793" dy="17">location_cache</tspan></text>
  <rect class="node" x="922" y="270" width="134" height="54"/>
  <text class="label" x="989" y="291"><tspan x="989" dy="0">OBServer</tspan><tspan x="989" dy="17">LS Leader</tspan></text>
  <rect class="node" x="922" y="358" width="134" height="54"/>
  <text class="label" x="989" y="379"><tspan x="989" dy="0">Leader / Follower</tspan><tspan x="989" dy="17">弱一致 / LDC</tspan></text>
  <rect class="node" x="1090" y="314" width="94" height="54"/>
  <text class="label" x="1137" y="341">返回结果</text>

  <path class="edge" d="M746 132 H778"/>
  <path class="edge" d="M900 132 H932"/>
  <path class="edge" d="M1060 132 H1066"/>
  <path class="edge dashed" d="M1104 158 C1026 230 884 280 812 300"/>
  <text class="small" x="979" y="238">缓存未命中</text>
  <path class="edge dashed" d="M864 335 C986 326 1092 242 1131 172"/>
  <text class="small" x="1004" y="336">tablet → LS → leader</text>
  <path class="edge" d="M1136 172 C1130 238 1042 252 1002 268"/>
  <text class="small" x="1093" y="237">强一致</text>
  <path class="edge" d="M1136 172 C1154 260 1064 336 1006 356"/>
  <text class="small" x="1116" y="332">弱一致 / 就近</text>
  <path class="edge" d="M1056 297 H1090"/>
  <path class="edge" d="M1056 385 C1090 380 1118 368 1131 369"/>
  <path class="edge" d="M1137 314 C1110 224 748 214 710 160"/>
</svg>
